<svg id="Layer_1" data-name="Layer 1" xmlns="http://www.w3.org/2000/svg" viewBox="0 0 35 35"><defs><style>.cls-1{fill:#fff;}</style></defs><title>icon</title><path class="cls-1" d="M8.34,18.43A.63.63,0,0,0,9,17.82l.16-7.46a.62.62,0,0,0-.63-.62.6.6,0,0,0-.62.59l-.16,7.46a.62.62,0,0,0,.6.64Zm-1.42,6.5h0a2.06,2.06,0,0,0,1.45.65A2.09,2.09,0,0,0,9.85,25h0a2.08,2.08,0,0,0,.64-1.47A2,2,0,0,0,9.93,22h0a2.07,2.07,0,0,0-1.47-.65A2,2,0,0,0,7,22H7a2.08,2.08,0,0,0-.66,1.47,2.1,2.1,0,0,0,.55,1.46l0,0Zm.91-2.08h0a.82.82,0,0,1,.6-.23.81.81,0,0,1,.6.25H9a.85.85,0,0,1,.24.62.82.82,0,0,1-.27.6H9a.82.82,0,0,1-.61.24.84.84,0,0,1-.59-.28l0,0a.88.88,0,0,1-.22-.59.84.84,0,0,1,.27-.6Zm17.46.08h0a2.11,2.11,0,0,0,2,2.14A2.1,2.1,0,0,0,29.47,23a2.17,2.17,0,0,0-.54-1.46l0,0a2.1,2.1,0,0,0-1.47-.65,2.12,2.12,0,0,0-2.13,2.05Zm1.52-.57h0a.78.78,0,0,1,.59-.24.84.84,0,0,1,.6.26l0,0a.9.9,0,0,1,.21.58.85.85,0,0,1-.28.6.83.83,0,0,1-.61.24.79.79,0,0,1-.58-.26.82.82,0,0,1-.25-.61.82.82,0,0,1,.28-.59ZM28.14,5.85h0a1,1,0,0,0-1.25-.75L20.73,6.6a1,1,0,0,0-.86-.47l-15-.32a1,1,0,0,0-1.06,1L3.34,28.44a1,1,0,0,0,1,1.06l15,.32a1,1,0,0,0,1.06-1l.28-13L24,29.15a1,1,0,0,0,1.25.76l7.3-1.79a1,1,0,0,0,.75-1.25l-5.17-21ZM11.28,27.58h0l-5.85-.12L5.85,7.89,11.7,8l-.41,19.57Zm7.1.15h0l-5.85-.12L12.94,8l5.85.12-.41,19.57Zm7.37-.07h0l-4.67-19,5.29-1.3,4.68,19-5.29,1.3ZM15.7,25.74h0a2.11,2.11,0,0,0,1.49-.59,2.06,2.06,0,0,0,.66-1.47,2.14,2.14,0,0,0-.54-1.46l0,0a2.08,2.08,0,0,0-3-.06,2,2,0,0,0-.65,1.47,2.06,2.06,0,0,0,.59,1.5,2.13,2.13,0,0,0,1.47.65ZM15.16,23h0a.84.84,0,0,1,.61-.23.86.86,0,0,1,.6.25l0,0a.85.85,0,0,1,.21.59.84.84,0,0,1-.26.6.85.85,0,0,1-.61.25.87.87,0,0,1-.6-.28.82.82,0,0,1-.24-.61.85.85,0,0,1,.27-.6Zm.7-4.42h0A.63.63,0,0,0,16.5,18l.16-7.46A.62.62,0,0,0,16,9.89a.61.61,0,0,0-.64.59l-.16,7.46a.62.62,0,0,0,.61.64Zm8.3-8.87h0a.61.61,0,0,0-.45.74l1.78,7.27a.61.61,0,0,0,.75.45.59.59,0,0,0,.45-.74l-1.78-7.27a.61.61,0,0,0-.75-.45Z"/></svg>