<svg width="13" height="9" viewBox="0 0 13 9" fill="none" xmlns="http://www.w3.org/2000/svg">
<g clip-path="url(#clip0_362_3613)">
<path d="M12.19 2.99C12.14 2.92 9.61 0 6.33 0C4.22 0 2.11 1.17 0.48 2.99C-0.16 3.69 -0.16 4.76 0.48 5.46C2.83 8.06 5.17 8.45 6.33 8.45C7.49 8.45 9.85 8.03 12.18 5.46C12.83 4.76 12.83 3.69 12.19 2.99ZM11.41 4.75C11.36 4.81 9.09 7.46 6.34 7.39C3.74 7.33 1.84 5.38 1.26 4.75C0.99 4.45 0.99 3.99 1.26 3.69C2.51 2.32 4.4 1.01 6.33 1.06C8.67 1 10.78 3.01 11.41 3.7C11.68 3.99 11.68 4.45 11.41 4.75Z" fill="white"/>
<path d="M6.33 2.10999H6.13C6.08 2.10999 6.04 2.13999 6.02 2.17999C6 2.22999 6 2.27999 6.02 2.31999C6.35 2.79999 6.21 3.45999 5.73 3.77999C5.56 3.89999 5.35 3.95999 5.15 3.95999C4.91 3.95999 4.68 3.86999 4.49 3.71999C4.45 3.69999 4.4 3.69999 4.36 3.71999C4.32 3.72999 4.28 3.76999 4.28 3.81999C4.24 3.94999 4.22 4.08999 4.22 4.21999C4.22 5.38999 5.17 6.32999 6.33 6.32999C7.49 6.32999 8.44 5.37999 8.44 4.21999C8.44 3.05999 7.5 2.10999 6.33 2.10999Z" fill="white"/>
</g>
<defs>
<clipPath id="clip0_362_3613">
<rect width="12.67" height="8.45" fill="white"/>
</clipPath>
</defs>
</svg>
