<svg width="63" height="28" viewBox="0 0 63 28" fill="none" xmlns="http://www.w3.org/2000/svg">
<g filter="url(#filter0_d_59_697)">
<rect x="4" y="2" width="55" height="20" rx="2" fill="#EFF0F1" shape-rendering="crispEdges"/>
<path d="M18 9L12.5 14.5L10 12" stroke="#0F9347" stroke-width="1.5" stroke-linecap="round" stroke-linejoin="round"/>
<path d="M26.624 16.68C26.056 16.68 25.496 16.62 24.944 16.5C24.4 16.372 23.964 16.196 23.636 15.972C23.532 15.9 23.48 15.836 23.48 15.78C23.48 15.724 23.496 15.676 23.528 15.636L23.924 15.012C23.972 14.94 24.016 14.904 24.056 14.904C24.096 14.904 24.148 14.924 24.212 14.964C24.508 15.14 24.852 15.284 25.244 15.396C25.636 15.5 26.032 15.552 26.432 15.552C26.976 15.552 27.384 15.464 27.656 15.288C27.936 15.104 28.076 14.812 28.076 14.412C28.076 14.172 28.024 13.98 27.92 13.836C27.816 13.692 27.664 13.568 27.464 13.464C27.264 13.36 26.94 13.22 26.492 13.044L26.216 12.936C25.696 12.728 25.264 12.528 24.92 12.336C24.584 12.144 24.304 11.892 24.08 11.58C23.856 11.268 23.744 10.888 23.744 10.44C23.744 9.712 24.02 9.152 24.572 8.76C25.132 8.36 25.864 8.16 26.768 8.16C27.32 8.16 27.796 8.212 28.196 8.316C28.604 8.42 28.956 8.58 29.252 8.796C29.348 8.868 29.396 8.936 29.396 9C29.396 9.048 29.38 9.092 29.348 9.132L28.964 9.756C28.916 9.828 28.876 9.864 28.844 9.864C28.812 9.864 28.76 9.84 28.688 9.792C28.176 9.464 27.54 9.3 26.78 9.3C26.276 9.3 25.896 9.392 25.64 9.576C25.384 9.76 25.256 10.052 25.256 10.452C25.256 10.7 25.308 10.9 25.412 11.052C25.524 11.196 25.684 11.32 25.892 11.424C26.1 11.528 26.436 11.668 26.9 11.844L27.2 11.964C27.784 12.196 28.24 12.412 28.568 12.612C28.896 12.804 29.148 13.048 29.324 13.344C29.508 13.632 29.6 14.004 29.6 14.46C29.6 15.148 29.34 15.692 28.82 16.092C28.308 16.484 27.576 16.68 26.624 16.68ZM31.2184 16.5C31.0584 16.5 30.9424 16.464 30.8704 16.392C30.8064 16.32 30.7744 16.212 30.7744 16.068V8.784C30.7744 8.632 30.8064 8.52 30.8704 8.448C30.9424 8.376 31.0624 8.34 31.2304 8.34H31.8784C32.0064 8.34 32.1024 8.356 32.1664 8.388C32.2384 8.42 32.2944 8.484 32.3344 8.58L34.7584 14.16L37.1824 8.58C37.2224 8.484 37.2744 8.42 37.3384 8.388C37.4104 8.356 37.5104 8.34 37.6384 8.34H38.2864C38.4544 8.34 38.5704 8.376 38.6344 8.448C38.7064 8.52 38.7424 8.632 38.7424 8.784V16.068C38.7424 16.212 38.7064 16.32 38.6344 16.392C38.5704 16.464 38.4584 16.5 38.2984 16.5H37.7704C37.6104 16.5 37.4944 16.464 37.4224 16.392C37.3504 16.32 37.3144 16.212 37.3144 16.068V10.896L35.2624 15.468C35.1984 15.596 35.1344 15.688 35.0704 15.744C35.0064 15.8 34.9024 15.828 34.7584 15.828C34.6144 15.828 34.5064 15.8 34.4344 15.744C34.3704 15.688 34.3104 15.596 34.2544 15.468L32.2024 10.896V16.068C32.2024 16.212 32.1664 16.32 32.0944 16.392C32.0304 16.464 31.9144 16.5 31.7464 16.5H31.2184ZM40.6051 16.5C40.4451 16.5 40.3291 16.464 40.2571 16.392C40.1931 16.32 40.1611 16.212 40.1611 16.068V8.784C40.1611 8.632 40.1931 8.52 40.2571 8.448C40.3291 8.376 40.4451 8.34 40.6051 8.34H45.5971C45.7571 8.34 45.8651 8.372 45.9211 8.436C45.9851 8.5 46.0171 8.608 46.0171 8.76V9.084C46.0171 9.236 45.9851 9.348 45.9211 9.42C45.8651 9.484 45.7571 9.516 45.5971 9.516H41.6971V11.844H44.5291C44.6891 11.844 44.8011 11.876 44.8651 11.94C44.9291 12.004 44.9611 12.112 44.9611 12.264V12.564C44.9611 12.716 44.9291 12.828 44.8651 12.9C44.8011 12.964 44.6891 12.996 44.5291 12.996H41.6971V15.336H45.5851C45.7451 15.336 45.8571 15.372 45.9211 15.444C45.9851 15.508 46.0171 15.616 46.0171 15.768V16.092C46.0171 16.236 45.9851 16.34 45.9211 16.404C45.8571 16.468 45.7451 16.5 45.5851 16.5H40.6051ZM46.7225 16.5C46.6665 16.5 46.6185 16.484 46.5785 16.452C46.5465 16.42 46.5305 16.38 46.5305 16.332C46.5305 16.284 46.5505 16.228 46.5905 16.164L49.4825 12.324L46.7465 8.676C46.6985 8.612 46.6745 8.552 46.6745 8.496C46.6745 8.448 46.6905 8.412 46.7225 8.388C46.7545 8.356 46.8025 8.34 46.8665 8.34H47.9825C48.0705 8.34 48.1345 8.352 48.1745 8.376C48.2145 8.392 48.2545 8.428 48.2945 8.484L50.3345 11.184L52.3745 8.484C52.4145 8.428 52.4545 8.392 52.4945 8.376C52.5345 8.352 52.5985 8.34 52.6865 8.34H53.8145C53.8705 8.34 53.9145 8.356 53.9465 8.388C53.9785 8.412 53.9945 8.448 53.9945 8.496C53.9945 8.552 53.9705 8.612 53.9225 8.676L51.1865 12.324L54.0785 16.164C54.1185 16.228 54.1385 16.284 54.1385 16.332C54.1385 16.38 54.1185 16.42 54.0785 16.452C54.0465 16.484 54.0025 16.5 53.9465 16.5H52.8305C52.7505 16.5 52.6905 16.492 52.6505 16.476C52.6105 16.46 52.5705 16.424 52.5305 16.368L50.3345 13.464L48.1505 16.368C48.1105 16.424 48.0705 16.46 48.0305 16.476C47.9905 16.492 47.9305 16.5 47.8505 16.5H46.7225Z" fill="#101828"/>
</g>
<defs>
<filter id="filter0_d_59_697" x="0.7" y="0.7" width="61.6" height="26.6" filterUnits="userSpaceOnUse" color-interpolation-filters="sRGB">
<feFlood flood-opacity="0" result="BackgroundImageFix"/>
<feColorMatrix in="SourceAlpha" type="matrix" values="0 0 0 0 0 0 0 0 0 0 0 0 0 0 0 0 0 0 127 0" result="hardAlpha"/>
<feOffset dy="2"/>
<feGaussianBlur stdDeviation="1.65"/>
<feComposite in2="hardAlpha" operator="out"/>
<feColorMatrix type="matrix" values="0 0 0 0 0 0 0 0 0 0 0 0 0 0 0 0 0 0 0.2 0"/>
<feBlend mode="normal" in2="BackgroundImageFix" result="effect1_dropShadow_59_697"/>
<feBlend mode="normal" in="SourceGraphic" in2="effect1_dropShadow_59_697" result="shape"/>
</filter>
</defs>
</svg>
